<?xml version="1.0" standalone="no"?>
<!DOCTYPE svg PUBLIC "-//W3C//DTD SVG 20010904//EN"
 "http://www.w3.org/TR/2001/REC-SVG-20010904/DTD/svg10.dtd">
<svg version="1.0" xmlns="http://www.w3.org/2000/svg"
 width="2259.000000pt" height="2101.000000pt" viewBox="0 0 2259.000000 2101.000000"
 preserveAspectRatio="xMidYMid meet">
<metadata>
Created by potrace 1.15, written by Peter Selinger 2001-2017
</metadata>
<g transform="translate(0.000000,2101.000000) scale(0.100000,-0.100000)"
fill="#000000" stroke="none">
<path d="M16501 20973 c-6 -21 -28 -112 -51 -203 -170 -680 -436 -1610 -685
-2390 -380 -1191 -819 -2346 -1228 -3230 -19 -41 -49 -106 -67 -145 -52 -114
-311 -629 -395 -785 -408 -761 -843 -1384 -1270 -1817 l-140 -142 -220 -31
c-1154 -161 -2114 -408 -2844 -729 -1440 -635 -2297 -1671 -2701 -3266 -69
-273 -160 -738 -147 -751 16 -16 461 -88 732 -119 349 -39 552 -48 949 -42
364 5 512 16 801 58 563 81 1129 254 1630 499 178 86 435 228 466 256 8 7 19
14 22 14 14 0 150 92 175 118 14 15 22 21 17 13 -10 -17 -1 -12 68 37 26 19
47 39 47 45 0 7 -7 3 -15 -7 -8 -11 -15 -15 -15 -9 0 14 19 27 43 29 35 3 38
4 32 13 -3 5 4 12 15 16 11 3 20 11 20 16 0 6 5 7 12 3 7 -4 8 -3 4 5 -4 6
-12 9 -17 6 -5 -4 -9 0 -9 8 0 8 9 17 21 20 13 3 19 12 17 24 -3 19 6 20 59
10 l28 -6 -30 14 c-16 8 -25 14 -19 15 5 0 31 21 57 46 26 25 47 42 47 38 0
-4 8 2 18 13 9 11 53 50 97 88 101 85 106 90 186 167 91 87 126 117 133 112 3
-2 4 -1 1 3 -8 10 126 143 145 144 8 0 10 3 4 5 -6 3 7 24 30 47 23 23 73 78
111 121 39 44 91 102 116 130 89 98 422 526 449 576 16 30 72 104 83 108 4 2
7 8 7 12 0 5 32 54 70 110 39 56 70 103 70 106 0 9 104 159 119 172 8 6 12 12
8 12 -12 0 24 63 47 83 20 18 21 18 36 -1 15 -19 21 -16 215 81 110 55 259
131 330 169 222 119 714 402 710 408 -2 4 1 7 8 7 11 0 182 100 254 149 18 12
29 25 25 29 -4 5 -2 5 4 2 6 -3 25 4 44 16 52 34 62 40 113 71 26 15 47 32 47
37 0 5 7 9 15 9 8 0 15 5 15 10 0 6 3 9 8 8 16 -3 41 15 35 26 -3 6 -3 8 2 4
12 -11 67 21 59 34 -4 7 -3 8 4 4 15 -9 94 43 85 57 -3 6 -1 7 6 3 14 -9 63
28 53 39 -4 5 1 5 10 2 10 -3 20 -1 24 5 5 7 2 8 -6 3 -8 -5 -11 -4 -6 3 4 6
13 9 20 6 7 -3 28 10 47 28 18 18 29 26 24 19 -5 -8 6 -5 23 8 18 12 32 27 32
32 0 5 6 8 13 7 6 -2 12 5 12 14 0 9 4 20 9 25 5 4 6 3 2 -4 -3 -6 -2 -14 4
-18 6 -3 13 1 16 9 3 9 9 14 14 11 4 -2 25 10 46 29 21 18 48 36 58 40 15 5
17 9 8 18 -7 7 -12 16 -12 22 0 5 6 1 14 -10 8 -10 18 -15 23 -11 11 11 11 31
0 38 -5 4 4 6 19 6 16 0 23 -2 17 -4 -7 -3 -13 -9 -13 -15 0 -6 9 -3 20 7 11
10 17 21 15 26 -3 4 -1 10 5 14 6 4 8 11 5 16 -4 5 -1 9 5 9 7 0 10 -7 6 -15
-3 -8 -1 -15 4 -15 6 0 10 5 10 12 0 6 3 8 6 5 6 -6 61 27 74 44 3 3 15 11 28
18 12 6 22 19 22 27 0 8 -4 12 -10 9 -5 -3 -10 -2 -10 4 0 5 3 12 8 14 10 7
32 -19 24 -29 -4 -4 -1 -4 6 0 6 4 12 15 12 24 0 11 3 13 8 5 5 -8 14 -6 31 8
13 11 21 23 17 27 -4 4 -14 -2 -22 -12 -8 -11 -14 -15 -14 -9 0 17 26 34 42
28 22 -9 57 26 61 60 2 17 9 30 15 30 6 0 18 9 27 20 9 11 14 14 10 8 -4 -8 0
-13 9 -13 9 0 16 -5 16 -10 0 -6 14 2 30 17 17 14 27 29 24 32 -3 3 -11 -2
-18 -11 -7 -10 -16 -15 -19 -11 -4 3 -7 1 -7 -6 0 -7 -5 -9 -11 -6 -14 9 -6
30 12 30 7 0 19 11 26 25 8 16 13 19 13 9 0 -9 7 -20 16 -23 26 -10 29 -7 8
10 -10 8 -13 13 -6 9 6 -3 12 -1 12 6 0 9 3 10 11 2 8 -8 22 -4 50 15 40 26
50 42 25 42 -8 0 -23 -12 -34 -26 -16 -22 -22 -25 -38 -16 -16 10 -16 11 -3
12 9 0 19 7 23 15 3 8 13 15 22 15 10 0 14 5 10 15 -3 8 -2 14 2 13 4 0 24 6
45 16 25 11 37 22 35 34 -3 18 6 19 60 8 21 -5 32 -4 32 4 0 6 -6 10 -12 9 -7
-1 -21 -1 -32 0 -16 1 -15 4 9 23 15 12 38 32 51 45 22 22 72 33 59 13 -3 -5
-15 -10 -25 -10 -11 0 -27 -11 -36 -25 -9 -14 -20 -23 -24 -20 -5 3 -11 2 -14
-3 -9 -15 49 -6 74 11 14 9 20 17 16 17 -5 0 -18 -8 -29 -17 -15 -14 -19 -14
-15 -3 2 7 19 22 37 33 30 16 33 16 27 1 -5 -14 -4 -15 9 -4 13 11 13 15 3 22
-9 7 -6 8 10 5 13 -3 20 -1 16 5 -3 5 -15 8 -25 5 -10 -3 -22 -1 -25 4 -3 5 2
9 10 9 9 0 16 7 16 15 0 14 14 19 48 18 7 -1 11 1 8 5 -13 12 141 175 156 166
4 -3 5 3 1 13 -6 16 -5 16 10 4 15 -12 17 -12 12 1 -6 16 59 81 70 70 4 -4 5
-2 3 4 -2 6 64 77 147 157 125 122 152 144 165 134 13 -10 13 -10 3 4 -11 14
4 32 105 128 64 61 132 126 150 144 18 17 37 31 42 30 5 -2 7 4 4 12 -4 8 -2
15 4 15 5 0 42 32 81 70 38 39 75 70 82 70 6 0 9 7 6 14 -4 10 -1 13 9 9 9 -3
14 1 14 13 0 9 3 14 7 11 3 -4 13 2 20 13 8 11 19 18 24 15 5 -3 6 1 3 9 -4
11 0 16 11 16 9 0 14 3 12 8 -3 4 19 25 49 47 29 22 54 45 54 50 0 6 27 35 59
65 33 30 106 100 164 155 153 147 415 395 471 448 28 25 54 44 58 41 5 -3 7
-1 6 5 -4 15 234 241 245 234 6 -3 7 -1 3 5 -7 12 48 55 58 45 4 -4 4 1 0 12
-6 14 -4 17 9 12 10 -4 14 -2 12 6 -3 7 18 29 46 50 29 20 45 37 38 37 -8 0
-3 8 12 18 25 17 66 54 166 150 30 28 59 52 64 52 6 0 7 5 4 10 -3 6 -2 10 2
10 9 0 16 6 143 124 41 38 107 99 146 135 39 36 106 98 149 136 43 39 99 92
126 119 27 27 49 47 49 44 0 -6 108 92 204 185 33 31 62 57 64 57 2 0 17 14
32 30 15 17 33 30 40 30 6 0 8 5 5 10 -3 6 -2 10 4 10 10 0 39 24 114 95 24
22 63 57 87 77 25 20 72 61 105 92 32 30 63 52 67 50 5 -3 7 -2 6 3 -2 5 17
29 41 53 24 25 40 38 36 30 -5 -8 6 0 23 19 28 29 34 32 50 20 16 -13 16 -13
2 5 -13 17 -13 20 0 24 8 3 40 29 70 57 30 29 66 61 79 71 14 10 42 36 64 57
21 20 40 37 42 37 2 0 29 24 61 53 108 98 180 162 239 212 32 28 64 56 71 63
7 6 21 12 31 12 15 0 16 2 3 10 -8 5 -10 10 -5 10 6 0 31 19 56 43 25 23 70
62 99 87 126 107 307 266 327 287 12 13 26 23 30 23 4 1 28 21 53 45 25 25 53
48 63 51 9 3 17 9 17 13 0 4 12 8 28 9 50 4 71 11 101 33 17 13 31 24 31 25 0
2 -39 26 -87 55 -175 105 -473 314 -696 488 -54 42 -101 76 -106 76 -5 0 -98
-115 -207 -255 -832 -1075 -1372 -1652 -1828 -1956 -82 -56 -281 -164 -300
-164 -3 0 4 21 14 46 11 25 18 50 15 54 -3 5 0 11 5 13 7 4 6 5 0 3 -7 -1 -11
-5 -10 -10 2 -9 -40 -46 -53 -46 -5 0 -6 7 -3 16 3 9 9 28 12 42 4 15 14 35
22 45 8 9 13 17 9 17 -15 0 224 456 248 472 5 4 7 8 3 8 -11 0 52 100 63 100
4 0 6 6 3 14 -3 7 1 20 8 27 8 8 38 52 67 99 30 47 109 161 175 255 67 93 126
177 132 187 5 10 13 15 17 12 4 -4 7 -1 7 7 0 8 40 64 88 125 97 124 284 356
292 364 3 3 33 39 67 80 33 41 69 84 79 95 11 11 37 43 59 70 22 28 65 78 95
112 30 34 71 81 91 105 224 265 237 278 294 280 25 2 85 45 85 61 -1 7 -38 30
-82 52 -129 63 -363 199 -454 264 l-83 60 -128 -182 c-686 -982 -1196 -1615
-1674 -2082 -128 -124 -352 -325 -364 -325 -2 0 2 18 10 41 8 23 22 63 30 91
13 44 13 49 -1 44 -32 -12 -24 61 10 85 5 4 10 26 12 50 2 24 8 45 14 47 5 2
10 14 10 26 0 12 4 26 8 31 8 9 35 87 38 110 0 6 8 26 17 46 9 19 19 47 22 62
4 15 11 27 17 27 5 0 7 4 4 9 -3 4 1 17 9 27 8 10 15 25 15 32 0 23 53 131 61
126 5 -3 7 1 4 8 -6 18 129 284 143 281 6 -2 9 4 5 12 -3 9 1 23 9 33 8 9 32
49 53 87 49 89 154 251 247 383 40 56 78 110 83 120 16 28 226 305 252 331 13
13 23 27 23 32 0 4 6 14 13 21 7 7 26 31 42 53 17 22 32 42 35 45 3 3 21 25
40 50 19 25 40 50 46 55 6 6 26 30 45 55 18 25 39 51 46 58 6 6 15 21 18 32 4
11 11 18 16 15 5 -4 9 -3 9 2 0 4 13 22 28 38 15 17 43 50 62 75 59 76 83 100
99 100 32 0 96 29 113 51 21 25 18 30 -32 49 -73 27 -360 175 -489 252 -73 44
-137 76 -141 71 -29 -34 -112 -151 -197 -278 -92 -138 -145 -223 -418 -670
-445 -727 -718 -1091 -1101 -1465 -160 -157 -321 -296 -330 -287 -4 3 4 55 16
114 26 126 25 123 35 145 4 10 8 29 9 42 0 13 5 22 10 19 4 -3 5 5 1 17 -5 16
-4 20 4 15 8 -5 10 2 6 22 -5 22 -4 25 5 13 10 -13 11 -13 7 0 -2 8 -13 14
-23 13 -18 -1 -18 -1 -1 11 22 17 22 30 0 22 -16 -6 -16 -6 0 12 9 10 17 28
17 40 0 11 5 24 10 27 6 4 9 12 8 18 -4 20 24 107 33 101 5 -3 6 2 3 10 -3 9
-1 16 6 16 6 0 9 4 6 9 -6 9 39 119 72 174 12 21 17 35 12 32 -6 -4 -2 10 9
31 12 21 21 44 21 51 0 7 4 13 8 13 4 0 14 16 21 35 7 21 17 33 23 29 7 -4 8
-2 4 4 -8 13 130 285 162 320 6 7 12 18 12 24 0 5 15 35 34 66 18 32 64 109
101 172 38 63 73 118 79 122 6 4 8 8 4 8 -4 0 17 36 47 81 30 45 55 83 55 85
0 3 131 207 148 229 4 6 27 39 52 75 120 176 373 514 398 533 10 7 22 21 27
31 10 18 102 59 115 51 4 -2 22 11 40 30 24 25 29 36 19 38 -146 43 -415 155
-607 254 -68 35 -125 63 -127 63 -2 0 -41 -71 -86 -157 -176 -338 -275 -524
-357 -668 -399 -702 -800 -1273 -1243 -1770 -101 -113 -149 -163 -149 -154 0
2 16 48 35 103 20 54 33 101 30 104 -3 3 -5 0 -5 -6 0 -7 -7 -12 -16 -12 -11
0 -15 -6 -11 -19 3 -14 1 -18 -9 -14 -10 4 -12 0 -7 -13 5 -13 3 -15 -7 -9 -9
5 -11 4 -6 -4 4 -6 0 -18 -9 -27 -15 -15 -15 -14 -9 12 4 16 13 38 20 49 8 11
14 27 14 37 0 16 11 23 33 19 10 -2 9 13 -3 25 -7 7 -6 22 5 47 8 20 15 45 15
55 0 10 8 27 18 38 10 11 17 25 14 33 -3 10 0 11 17 2 27 -15 27 -19 -5 -32
-31 -11 -28 -21 3 -13 23 6 41 36 25 42 -6 2 -8 12 -5 22 3 11 9 18 13 15 13
-8 18 8 9 30 -6 17 -8 17 -8 3 -1 -10 -5 -18 -11 -18 -5 0 -10 -8 -10 -17 0
-9 -3 -14 -6 -10 -4 3 -3 14 1 24 5 10 9 21 9 25 1 3 4 9 8 13 4 4 4 13 2 20
-3 7 -1 16 4 19 6 3 13 -6 16 -19 4 -15 11 -23 17 -19 8 4 7 10 0 17 -6 6 -11
18 -11 26 0 11 3 10 14 -4 13 -18 14 -17 14 9 0 16 -3 24 -7 20 -3 -5 -15 -11
-25 -12 -16 -3 -18 -1 -9 10 5 7 13 26 17 41 4 17 11 25 18 21 7 -5 9 -2 6 7
-3 8 1 24 9 34 16 20 16 20 9 0 -5 -15 -4 -17 4 -9 9 9 9 17 1 32 -7 13 -7 23
-1 27 5 3 7 12 3 20 -3 8 -1 15 5 15 6 0 16 23 23 50 7 28 16 50 21 50 4 0 8
7 8 16 0 9 9 27 20 41 11 14 20 30 20 36 0 6 -7 2 -15 -9 -14 -18 -14 -18 -8
3 3 12 11 28 19 34 8 6 14 20 14 30 0 10 5 21 10 24 6 4 8 10 5 15 -3 4 2 21
10 36 8 16 15 35 15 42 0 7 4 20 9 30 5 9 12 25 15 35 4 11 11 15 17 11 7 -4
9 -3 6 3 -7 10 11 84 22 93 3 3 12 23 20 45 13 40 68 175 101 250 10 22 28 63
40 92 13 29 27 50 31 47 5 -3 6 1 3 9 -2 7 8 40 24 73 105 215 180 363 199
391 12 18 20 33 17 33 -3 0 9 20 26 44 16 25 30 47 30 51 0 4 14 26 30 50 17
24 30 48 30 54 0 5 6 14 13 18 6 4 23 30 37 56 14 27 33 57 43 68 10 10 14 19
10 19 -4 0 -3 4 2 8 6 4 26 32 45 62 19 30 37 57 40 60 3 3 23 32 45 65 49 74
62 88 74 80 5 -3 12 -1 16 5 3 5 16 10 29 10 12 0 35 13 51 30 l28 30 -134 64
c-164 79 -517 223 -952 390 -180 69 -329 126 -332 126 -2 0 -9 -17 -14 -37z"/>
<path d="M4038 18483 c-146 -178 -350 -478 -538 -793 -905 -1514 -1464 -3247
-1538 -4760 -13 -282 -6 -824 13 -985 2 -22 12 -112 20 -200 65 -649 239
-1321 501 -1932 188 -440 467 -935 738 -1308 l37 -50 -8 85 c-14 153 -8 671
11 860 42 432 121 854 237 1260 23 80 42 155 43 167 0 11 5 19 10 16 5 -3 7 6
4 20 -3 15 -1 24 3 21 5 -3 10 4 10 15 2 29 3 33 17 58 6 12 13 31 15 42 2 11
6 23 10 27 3 3 4 20 1 38 -3 25 -3 27 5 11 l10 -20 2 20 c1 11 3 27 4 35 1 8
7 25 13 38 16 28 5 29 -19 0 -11 -11 -19 -16 -19 -10 0 6 12 20 26 31 19 15
25 28 24 53 -4 65 0 85 15 85 8 0 15 -4 15 -9 0 -4 5 -8 11 -8 8 0 8 4 0 14
-6 7 -9 22 -5 32 5 18 4 17 -12 -1 l-17 -20 8 20 c4 11 10 32 13 47 7 41 20
24 18 -23 -1 -22 3 -43 8 -46 6 -3 8 -3 4 2 -4 4 0 22 9 39 14 27 14 29 1 18
-14 -11 -15 -7 -13 35 1 27 11 71 22 100 12 28 18 55 14 59 -3 4 0 4 8 -1 10
-6 11 -2 6 15 -5 16 -4 20 5 15 9 -5 10 -1 5 16 -4 13 -4 21 0 17 4 -4 21 29
36 74 16 44 35 91 44 104 8 13 15 28 15 33 0 6 20 52 44 103 24 51 50 108 57
126 8 17 18 32 22 32 5 0 5 5 2 10 -3 6 -1 10 5 10 6 0 9 4 6 8 -8 13 63 154
74 147 5 -3 7 1 4 9 -8 21 279 571 316 606 3 3 23 40 45 83 22 43 47 86 55 95
9 9 17 20 18 25 6 27 35 67 44 61 7 -4 8 -3 4 5 -4 6 14 43 43 85 27 41 47 76
44 80 -4 3 -1 6 5 6 7 0 12 4 12 10 0 8 70 120 97 155 4 6 48 71 97 145 50 74
97 141 105 148 8 6 11 12 7 12 -5 0 7 19 26 43 18 23 42 55 53 72 10 16 27 38
37 49 10 11 20 28 24 38 3 10 10 16 15 13 5 -4 9 0 9 8 0 13 35 63 72 106 7 8
36 45 63 82 118 157 168 219 178 219 6 0 8 3 4 6 -3 4 -1 12 6 19 7 7 24 27
40 46 140 173 239 292 290 350 122 136 190 212 247 273 89 96 510 520 510 513
0 -3 35 29 78 71 42 43 93 89 112 104 19 14 59 48 88 75 28 27 52 47 52 45 0
-2 14 10 31 27 17 17 35 31 40 31 5 0 22 14 39 31 16 18 30 28 30 24 0 -4 10
3 23 16 32 35 82 76 73 62 -5 -9 -2 -11 8 -7 9 3 13 10 10 15 -3 5 -1 9 5 9
12 0 67 50 64 59 -1 4 8 7 20 8 12 0 16 -1 9 -4 -6 -3 -9 -10 -6 -15 4 -6 2
-8 -4 -4 -20 12 -25 -16 -6 -32 10 -10 13 -10 6 -3 -14 17 -16 35 -3 26 5 -3
13 0 16 6 4 5 13 8 20 5 7 -2 27 4 45 15 28 17 30 22 19 37 -11 14 -11 15 0 5
11 -9 20 -9 42 2 15 8 31 20 34 26 12 19 -262 365 -413 521 -108 111 -174 164
-191 154 -5 -4 -45 -57 -87 -118 -228 -330 -411 -540 -643 -737 -167 -143
-495 -410 -499 -406 -2 2 15 41 38 86 l41 84 -33 -36 c-43 -47 -68 -81 -68
-91 0 -5 -6 -3 -14 4 -12 11 -7 25 26 88 22 41 48 89 58 105 10 17 69 131 133
255 131 257 175 336 223 403 19 26 34 50 34 54 0 19 195 263 334 416 66 72 72
77 112 77 38 0 94 29 94 48 0 8 -184 173 -257 231 -63 49 -253 175 -257 170
-1 -2 -58 -98 -126 -214 -286 -489 -432 -683 -667 -887 -103 -90 -364 -291
-369 -285 -4 3 0 15 29 108 11 36 11 46 1 46 -7 0 -10 -7 -6 -15 4 -11 1 -13
-8 -7 -8 5 -11 4 -6 -3 6 -11 -19 -42 -34 -42 -5 0 -6 8 -3 18 11 27 42 77 48
75 15 -8 17 -1 2 8 -18 10 -18 11 0 26 10 8 13 12 6 9 -11 -6 -6 34 6 44 3 3
14 30 25 60 10 30 25 63 34 73 8 9 12 20 9 23 -3 4 0 19 9 35 8 16 14 30 13
31 -6 9 67 146 75 141 5 -4 7 1 3 9 -3 9 7 36 24 62 16 26 29 49 29 52 0 16
123 191 196 279 117 141 130 156 138 148 4 -4 4 1 0 12 -6 15 -4 17 10 12 9
-4 15 -3 11 2 -6 10 181 205 224 233 14 10 39 18 55 18 30 0 96 35 96 51 0 26
-283 176 -475 253 l-109 44 -90 -132 c-463 -680 -700 -955 -1059 -1228 -56
-42 -103 -76 -104 -74 -2 2 6 25 17 51 11 26 22 55 23 64 1 9 6 22 10 29 5 7
4 12 -2 12 -6 0 -11 -4 -11 -10 0 -5 0 -12 0 -15 -1 -9 -64 -75 -72 -75 -8 0
-3 21 18 65 8 17 29 65 47 108 19 42 37 74 42 70 4 -5 5 0 2 10 -7 19 1 49 12
43 3 -2 7 6 7 17 1 12 14 48 28 79 14 31 26 62 26 68 0 6 5 8 12 4 7 -4 8 -3
4 4 -4 6 -2 19 3 29 6 10 20 41 32 68 56 132 184 365 200 365 5 0 9 6 9 13 0
12 142 213 207 293 156 189 186 223 201 228 9 2 33 7 53 10 20 4 46 17 58 29
21 23 21 24 3 40 -29 27 -200 108 -447 212 -126 53 -266 116 -310 139 -44 22
-83 42 -86 44 -4 1 -35 -32 -71 -75z"/>
<path d="M9925 17694 c-365 -54 -577 -172 -1030 -574 -168 -149 -282 -240
-367 -294 -40 -26 -161 -101 -268 -167 -1339 -831 -2583 -2098 -3434 -3499
-701 -1152 -1149 -2401 -1281 -3565 -13 -123 -25 -253 -32 -357 -10 -147 -10
-809 0 -958 15 -236 59 -564 107 -806 197 -993 606 -1894 1245 -2748 63 -85
115 -160 115 -167 0 -20 -100 -223 -150 -304 -170 -277 -442 -511 -758 -650
l-83 -36 -87 73 c-116 97 -463 444 -589 588 -55 63 -225 266 -379 450 -272
327 -457 526 -541 583 l-42 29 -120 -17 c-154 -20 -358 -71 -531 -130 -768
-264 -1418 -763 -1638 -1259 l-13 -29 30 24 c16 13 62 53 103 88 40 35 95 82
122 105 27 22 67 57 89 76 23 19 37 28 32 20 -4 -8 2 -5 14 8 12 12 26 22 32
22 6 0 7 4 4 10 -3 5 0 7 8 4 20 -7 45 25 28 35 -10 6 -9 10 4 14 10 4 14 3 9
-4 -4 -8 1 -9 17 -4 30 9 49 24 49 39 0 6 -5 4 -11 -4 -8 -12 -10 -12 -7 -1 2
8 12 15 21 17 9 1 15 -2 11 -7 -3 -5 15 5 40 21 32 22 44 36 40 48 -5 13 -4
14 4 3 8 -11 20 -8 64 19 222 138 279 170 398 231 74 37 149 73 165 78 l30 11
-25 -18 c-232 -162 -672 -721 -934 -1187 -26 -45 -15 -37 115 90 224 220 227
223 220 231 -3 4 2 4 12 1 10 -4 16 -3 13 2 -3 5 1 14 9 21 8 7 12 17 8 24 -3
6 -3 8 1 4 4 -3 21 7 37 23 16 16 34 29 39 29 5 0 7 6 4 14 -3 9 3 17 15 21
12 3 21 11 21 16 0 6 5 7 12 3 8 -5 9 -2 5 9 -3 9 -2 16 2 14 5 -1 10 3 11 8
2 6 17 20 33 33 17 12 27 22 22 22 -6 0 7 12 28 27 20 14 37 30 37 35 0 4 11
8 25 8 16 0 25 6 25 16 0 12 7 15 25 12 14 -3 25 -1 25 3 0 5 8 6 17 3 12 -4
11 -1 -3 8 -24 14 -15 30 21 36 11 2 23 8 26 14 3 5 10 8 15 7 23 -4 33 3 29
22 -4 18 -2 19 11 8 14 -12 14 -15 -6 -31 -12 -10 -26 -15 -31 -12 -5 3 -9 0
-9 -5 0 -26 47 -3 68 34 6 11 12 15 12 8 0 -7 26 6 58 28 31 22 56 45 55 49
-2 5 5 6 14 3 12 -5 15 -2 10 10 -4 11 -2 14 7 11 7 -3 47 14 89 36 43 23 77
39 77 36 0 -4 -55 -91 -123 -194 -268 -406 -405 -658 -471 -862 -33 -101 -57
-223 -48 -249 4 -11 82 126 186 324 17 33 46 82 63 110 18 27 33 56 33 64 0 8
3 11 7 8 4 -4 13 5 20 20 21 44 39 72 59 96 11 12 28 39 38 59 11 20 24 35 28
32 4 -3 8 0 8 7 0 9 58 92 130 183 60 78 340 321 340 296 0 -6 5 -8 10 -5 8 5
7 11 0 20 -10 12 -6 13 19 5 17 -5 31 -6 31 -2 0 4 4 1 9 -7 7 -11 12 -8 25
12 10 14 29 28 44 32 15 3 36 14 47 24 27 24 126 81 205 118 187 88 317 84
365 -12 15 -30 20 -61 20 -126 l0 -86 35 -1 c164 -6 323 -164 710 -707 296
-414 496 -615 674 -677 98 -34 157 -19 137 35 -7 18 -7 28 1 33 7 5 8 3 3 -6
-5 -9 -4 -11 4 -6 8 6 9 11 2 20 -8 10 16 38 96 112 59 54 117 109 130 121 13
12 23 19 23 16 0 -3 11 6 25 21 13 14 28 26 33 26 5 0 24 15 43 33 75 70 77
71 96 56 9 -8 14 -9 10 -3 -10 17 18 25 34 11 11 -10 11 -9 0 5 -11 14 -17 15
-35 6 -19 -10 -20 -10 -7 5 7 10 20 17 27 17 8 0 14 6 14 13 0 8 4 7 10 -3 8
-13 10 -13 10 1 0 24 30 32 50 14 14 -13 17 -13 17 0 0 8 -4 12 -8 10 -3 -3
-12 1 -18 9 -9 11 -4 13 29 11 33 -2 38 0 29 11 -13 16 2 19 18 3 7 -7 14 -6
24 4 8 8 25 19 37 26 17 9 21 18 18 34 -3 12 -3 16 0 9 3 -6 11 -9 16 -6 7 5
8 2 4 -7 -4 -8 0 -5 8 5 9 11 16 17 16 13 0 -7 176 103 203 127 9 9 17 14 17
11 0 -3 24 9 53 26 28 17 131 70 227 117 769 383 1646 529 2678 446 172 -13
484 -49 508 -58 8 -3 4 -32 -13 -93 -13 -48 -46 -213 -73 -365 -58 -323 -87
-449 -130 -573 -102 -286 -229 -420 -437 -459 -43 -9 -105 -22 -138 -31 -68
-18 -352 -30 -878 -40 -347 -6 -409 -8 -652 -26 -135 -9 -165 -12 -285 -24
-374 -39 -744 -123 -1010 -230 -401 -161 -666 -404 -784 -717 -39 -104 -91
-397 -66 -372 14 14 121 187 123 199 1 5 4 12 7 15 9 9 34 65 32 73 -1 4 2 7
7 7 5 0 12 9 16 20 7 23 73 113 108 150 68 70 118 111 127 105 6 -4 9 -1 8 6
-2 6 9 15 25 20 15 4 25 4 23 0 -3 -4 0 -8 7 -8 7 0 12 12 12 26 0 19 5 25 17
23 10 -1 23 6 30 18 7 11 20 20 28 20 12 -1 11 -3 -3 -14 -10 -8 -19 -18 -20
-23 -1 -4 -6 -7 -10 -5 -5 1 -6 -2 -2 -8 3 -5 1 -10 -6 -10 -7 0 -10 -3 -7 -6
9 -8 48 19 48 33 0 7 5 13 11 13 5 0 8 -4 4 -10 -3 -5 38 18 91 52 230 144
440 212 654 213 121 0 192 -12 275 -46 l30 -12 -40 -15 c-22 -9 -97 -44 -167
-79 -372 -182 -637 -429 -796 -740 -100 -197 -141 -361 -148 -598 l-5 -160 47
90 c26 50 58 122 72 160 44 126 58 159 86 218 15 31 33 63 39 70 7 6 28 35 47
64 19 28 38 49 43 46 4 -2 7 2 7 9 1 17 126 169 134 161 3 -4 6 0 6 8 0 13 99
118 197 210 57 53 109 90 116 82 4 -3 7 -1 7 6 0 7 10 10 25 7 21 -4 24 -2 16
13 -8 14 -6 17 12 16 15 -1 24 5 28 19 5 19 6 18 11 -6 3 -17 1 -25 -5 -21 -6
3 -7 1 -3 -6 9 -14 26 -5 26 15 0 8 3 13 8 12 4 -2 54 21 112 50 58 28 132 59
165 67 75 19 155 20 155 2 0 -20 -88 -169 -200 -336 -254 -380 -351 -673 -367
-1101 -5 -161 3 -417 14 -407 4 4 103 329 107 352 1 6 5 16 9 23 5 6 4 12 -1
12 -5 0 -7 11 -4 25 2 14 8 25 13 25 5 0 6 -8 3 -17 -5 -15 -4 -15 4 -3 6 8 8
18 5 23 -3 5 1 14 8 19 11 8 10 8 -4 4 -15 -5 -17 -2 -12 15 4 12 8 27 9 33 2
6 6 28 10 48 6 29 12 36 27 33 11 -2 17 0 14 6 -4 5 -10 7 -15 4 -5 -3 -11 -1
-15 5 -3 5 -1 10 5 10 6 0 9 4 5 9 -5 10 4 34 57 151 65 140 83 176 98 194 8
10 13 19 10 20 -3 1 13 34 35 75 22 41 52 96 67 123 15 28 33 57 41 66 8 10
22 33 31 53 9 20 25 45 34 55 9 11 43 58 74 105 32 47 67 94 78 104 11 10 20
24 20 32 0 7 5 12 12 10 6 -1 18 11 26 27 24 49 179 199 197 192 9 -3 14 -2
11 3 -11 16 27 22 43 6 10 -10 11 -15 3 -15 -7 0 -12 5 -12 10 0 6 -4 10 -8
10 -4 0 -8 -11 -8 -24 l0 -23 42 25 c24 15 40 31 37 37 -4 5 -3 7 2 3 4 -4 43
11 87 33 225 113 446 152 602 105 42 -13 44 -13 55 10 8 17 7 32 -4 57 -13 32
-13 35 9 45 14 6 28 6 39 1 22 -13 50 -6 127 29 136 62 385 108 740 137 107 8
239 20 293 25 54 6 104 10 111 10 21 0 27 27 11 56 -7 14 -12 34 -10 43 4 20
66 154 74 161 3 3 7 10 8 17 6 31 80 163 88 156 4 -5 5 -2 1 5 -9 15 12 72 25
72 5 0 9 7 9 16 0 9 16 45 35 80 18 35 32 64 29 64 -3 0 4 13 15 29 12 16 21
34 21 41 0 6 3 9 8 7 4 -3 8 5 8 18 1 13 11 36 22 52 10 15 40 67 65 115 25
49 55 101 66 117 12 16 21 32 21 36 0 3 16 31 35 61 19 30 35 58 35 63 0 5 4
11 8 13 4 1 44 57 87 123 44 66 94 136 112 155 18 19 33 39 33 43 0 4 25 38
56 75 123 146 150 178 185 217 20 22 44 50 55 63 10 12 25 22 32 22 8 0 12 6
8 15 -3 8 -2 14 2 12 4 -1 22 13 41 31 19 17 38 32 42 32 5 0 8 4 6 9 -3 13
115 121 125 115 5 -3 8 -2 7 3 -3 20 2 33 14 30 6 -1 11 4 10 11 -2 6 2 12 7
12 6 0 30 19 53 43 40 40 80 76 267 247 45 41 107 98 137 127 30 29 63 55 72
58 10 3 23 17 29 30 6 14 16 25 20 25 5 0 38 27 73 60 35 33 70 58 76 55 7 -2
12 0 10 5 -3 13 94 101 104 94 5 -3 6 3 2 12 -4 11 -3 15 5 10 6 -3 17 2 24
13 7 10 33 35 58 56 76 63 141 119 172 148 16 15 33 27 38 27 4 0 10 4 12 9 2
5 27 29 57 55 46 38 57 44 70 33 14 -10 14 -10 3 5 -11 14 -7 21 29 50 23 18
46 32 51 30 5 -1 7 1 4 6 -5 9 28 42 44 42 5 0 16 10 24 22 9 12 16 20 16 17
0 -3 23 16 51 43 91 87 165 142 144 108 -10 -16 1 -11 16 7 10 11 10 14 2 9
-7 -4 -13 -2 -13 3 0 6 4 11 10 11 5 0 25 16 45 35 19 20 40 33 45 30 6 -3 10
0 10 8 0 18 46 57 68 57 12 0 13 3 5 8 -9 6 -3 14 20 27 17 10 37 25 43 33 7
10 16 12 25 7 11 -7 11 -5 -1 10 -8 10 -10 16 -3 12 6 -4 22 6 37 24 14 17 26
27 26 23 0 -4 8 2 18 12 9 11 49 45 87 76 39 30 81 67 94 82 25 26 48 36 35
14 -4 -7 -3 -8 5 -4 6 4 9 11 6 15 -4 7 20 30 124 116 20 17 52 45 71 62 19
18 43 36 53 39 9 3 14 10 11 16 -5 7 -1 9 9 5 9 -3 16 -3 14 1 -4 13 28 47 43
47 8 0 15 5 15 12 0 6 3 15 8 19 4 4 7 2 7 -4 0 -7 4 -12 10 -12 5 0 7 6 4 14
-3 8 12 27 38 47 23 19 50 41 59 49 34 32 97 86 128 110 18 14 47 40 64 58 29
31 56 44 41 20 -4 -7 -3 -8 5 -4 6 4 9 11 7 15 -3 4 29 39 71 77 42 38 87 79
99 91 13 12 24 20 24 18 0 -3 15 10 34 28 18 17 67 62 107 98 41 37 86 77 100
90 85 78 112 98 121 93 7 -4 8 -2 4 4 -6 10 26 52 40 52 3 0 30 25 60 55 30
31 54 53 54 50 0 -3 16 10 35 30 36 35 53 45 39 23 -4 -7 -3 -8 5 -4 6 4 9 11
6 16 -6 10 36 52 83 81 17 11 32 25 32 30 0 17 103 110 116 105 7 -3 11 0 8 7
-4 12 71 92 87 92 4 0 11 4 16 9 5 6 2 6 -7 1 -8 -5 23 28 69 73 46 45 88 79
94 75 6 -4 8 0 4 10 -3 10 -2 17 4 17 14 0 369 356 369 370 0 6 5 8 10 5 6 -3
10 -2 10 3 0 13 131 147 141 144 5 -1 9 5 9 13 0 8 5 15 12 15 6 0 9 3 6 6 -4
3 28 41 70 84 91 93 136 142 217 235 33 38 80 92 105 120 56 62 57 62 105 121
63 75 108 129 130 155 11 13 38 46 60 74 22 27 48 59 57 70 23 27 178 225 203
260 70 97 216 293 229 308 9 9 16 20 15 23 -1 5 129 196 151 222 6 6 7 12 3
12 -4 0 -3 4 2 8 19 13 235 364 235 381 0 6 4 11 8 11 4 0 15 15 23 33 9 17
43 82 76 142 67 123 202 383 202 390 0 3 19 43 41 90 22 46 40 87 40 92 0 4
14 35 30 67 17 32 30 65 30 72 0 8 4 14 10 14 5 0 14 18 20 40 6 23 16 40 23
39 7 -1 18 -1 26 0 12 1 12 3 -1 14 -11 8 -13 18 -8 32 7 16 9 17 9 3 1 -9 5
-20 11 -23 6 -3 7 1 4 9 -3 9 -1 16 5 16 6 0 8 8 4 18 -3 9 -2 14 2 9 5 -4 15
12 23 35 7 24 29 85 48 137 19 51 33 97 32 101 -2 5 -73 -48 -158 -117 -184
-149 -556 -427 -765 -574 -418 -294 -828 -551 -1490 -934 -306 -177 -497 -298
-533 -337 -12 -12 -74 -99 -138 -193 -224 -324 -486 -660 -742 -950 -151 -171
-523 -541 -687 -685 -953 -835 -1998 -1340 -3155 -1524 -123 -20 -331 -43
-445 -51 -49 -3 -101 -8 -115 -11 -28 -6 -719 -6 -765 0 -16 2 -75 7 -130 11
-490 33 -1068 140 -1597 296 l-68 20 0 62 c0 83 17 312 36 477 31 278 102 631
178 896 20 66 23 91 14 101 -8 10 -8 12 4 8 10 -4 18 5 26 31 6 21 9 41 6 46
-3 4 -1 8 5 8 5 0 8 12 5 26 -3 17 -1 23 7 19 8 -6 8 -2 0 14 -7 12 -8 21 -2
21 5 0 12 -6 15 -12 3 -7 3 -2 0 11 -5 18 -3 22 7 16 8 -5 11 -5 7 0 -4 4 -2
15 5 23 8 11 8 14 0 9 -6 -4 -13 -4 -16 0 -2 5 -2 2 0 -6 3 -11 1 -12 -12 -1
-12 10 -13 15 -4 20 6 4 9 13 5 18 -4 6 0 28 9 48 8 20 12 41 9 46 -4 6 2 8
17 3 15 -4 19 -3 11 3 -10 7 -9 17 3 52 8 24 20 49 25 55 5 7 7 15 3 18 -3 4
-1 7 7 7 9 0 10 3 1 14 -9 10 -8 16 4 26 8 7 15 16 15 21 0 20 44 108 52 103
4 -3 5 2 2 10 -10 26 245 513 315 602 12 15 21 32 21 40 0 7 4 14 9 16 4 2 25
30 46 63 31 49 173 244 222 305 138 172 267 319 281 319 6 1 11 5 10 9 -4 12
60 71 68 63 4 -3 4 2 1 12 -4 9 -3 17 2 17 4 0 21 12 37 28 16 15 32 27 35 27
4 0 22 18 40 41 19 22 41 38 48 36 10 -3 12 0 8 12 -4 9 -2 16 3 16 6 0 24 12
40 28 17 15 36 32 43 37 36 30 165 139 183 156 12 10 26 19 32 19 5 0 15 7 22
15 7 8 16 12 21 9 5 -3 9 0 9 5 0 6 9 11 19 11 11 0 23 4 26 10 3 6 -1 7 -9 4
-9 -3 -16 -2 -16 4 0 6 8 9 18 7 9 -1 16 -9 16 -18 -1 -8 4 -14 11 -13 21 3
45 28 38 39 -4 6 0 8 10 4 9 -3 19 -2 22 3 3 5 37 30 75 55 39 24 70 50 70 56
0 6 -7 8 -16 5 -8 -3 -12 -2 -9 3 3 6 14 9 25 8 10 -1 16 -6 12 -12 -8 -14 29
15 51 40 10 11 16 14 12 7 -6 -12 -3 -12 15 -2 18 10 20 14 9 22 -11 8 -11 9
3 5 9 -3 70 27 149 73 256 153 582 301 839 381 58 18 107 33 108 35 2 1 -16
19 -40 40 -23 20 -86 81 -138 134 -343 349 -460 756 -344 1200 15 58 26 113
26 123 0 9 4 17 9 17 6 0 7 5 4 10 -3 6 0 10 7 10 8 1 5 7 -8 18 -24 21 -22
68 4 89 11 8 12 12 4 13 -8 0 -9 5 -3 18 5 9 28 56 51 103 22 48 55 108 72
135 18 27 31 52 30 57 -1 4 3 7 8 7 6 0 10 5 10 10 0 11 127 191 158 225 10
11 41 47 68 80 27 33 74 86 104 117 30 31 62 65 71 75 34 39 123 118 131 115
4 -1 7 2 6 6 -3 9 56 72 67 72 3 0 26 20 52 44 29 28 52 42 61 38 9 -3 13 -1
9 5 -4 6 2 18 13 28 11 10 20 14 20 9 0 -5 7 1 15 13 16 22 99 83 114 83 5 0
11 7 15 15 3 8 10 15 17 15 6 0 8 -7 5 -16 -3 -9 -2 -12 5 -8 6 3 9 14 6 24
-4 15 1 18 22 17 14 -2 25 -7 23 -12 -2 -6 -10 -9 -18 -7 -8 2 -14 -2 -14 -7
0 -21 17 -18 50 10 33 27 34 30 17 43 -16 12 -16 14 -1 20 19 7 34 -1 33 -17
0 -9 -2 -9 -6 1 -2 6 -9 12 -15 12 -6 0 -6 -6 2 -15 10 -13 15 -12 35 3 13 9
20 21 17 26 -3 5 0 6 6 2 6 -3 36 10 67 30 31 19 83 48 116 64 73 34 103 30
237 -36 381 -186 936 -827 1427 -1646 49 -81 91 -146 93 -144 8 9 61 399 73
541 17 205 15 612 -5 810 -49 492 -186 969 -386 1342 -28 50 -70 151 -94 225
-235 703 -680 1158 -1404 1432 -190 72 -217 77 -407 81 -93 2 -183 1 -200 -1z
m753 -1035 c68 -23 87 -118 36 -178 -64 -77 -170 -5 -150 102 6 33 36 69 66
80 8 3 15 6 16 6 1 1 15 -4 32 -10z"/>
<path d="M13050 6778 c-106 -99 -319 -281 -565 -483 -393 -322 -407 -335 -393
-339 136 -41 329 -131 453 -213 283 -186 530 -462 749 -836 70 -119 216 -416
216 -439 0 -10 -44 -80 -97 -155 -53 -76 -203 -289 -333 -473 -130 -184 -305
-436 -390 -559 l-154 -224 -101 -48 c-327 -154 -659 -252 -1185 -349 -582
-108 -705 -135 -889 -197 -514 -171 -847 -471 -1129 -1015 l-50 -98 81 68 c90
76 217 171 287 217 25 16 53 38 63 50 10 11 16 14 12 7 -6 -11 -3 -11 13 -1
15 9 18 17 11 25 -8 9 -5 11 10 7 12 -3 45 12 93 44 40 27 92 60 115 73 23 13
39 28 36 33 -3 6 -1 7 5 3 5 -3 50 17 99 45 126 73 363 191 469 233 154 61
409 118 390 87 -4 -6 -115 -103 -246 -216 -292 -251 -396 -349 -515 -487 -150
-175 -273 -358 -377 -563 -59 -117 -150 -326 -144 -332 6 -7 206 157 213 175
4 9 13 24 22 34 12 14 18 15 30 5 14 -10 14 -10 3 5 -23 29 -45 3 407 463 98
100 159 154 168 151 8 -4 11 -1 7 5 -6 11 34 46 48 42 4 -2 5 4 2 11 -5 14 30
33 51 27 6 -1 7 1 3 5 -10 9 12 35 23 28 5 -3 9 2 9 10 0 9 5 16 10 16 6 0 10
-5 10 -12 0 -6 3 -9 6 -5 3 3 6 9 6 14 0 15 20 33 30 27 6 -4 14 0 19 7 7 12
10 12 21 0 11 -11 11 -13 -1 -6 -9 5 -12 4 -7 -3 5 -9 18 -6 47 8 24 13 37 25
33 32 -4 7 -3 8 4 4 12 -7 106 47 97 55 -3 3 1 6 9 6 7 0 58 23 112 50 130 67
318 144 472 193 69 22 126 39 128 38 1 -2 -54 -73 -122 -158 -467 -581 -636
-871 -730 -1255 -24 -98 -59 -343 -51 -352 8 -7 117 154 131 194 22 61 88 198
97 201 5 2 9 9 9 16 0 7 11 25 25 40 14 15 25 30 25 34 0 4 23 36 50 71 28 36
50 68 50 72 0 4 6 14 13 21 22 24 71 92 132 182 33 48 70 99 83 113 12 13 22
27 22 30 0 5 116 172 187 269 21 29 40 50 43 49 3 -2 11 9 18 24 7 15 20 36
30 47 9 11 39 49 67 84 103 135 344 390 368 390 5 0 5 5 1 12 -4 7 -3 8 4 4 6
-4 23 7 37 23 15 16 38 32 51 35 13 4 24 11 24 16 0 5 7 6 17 3 10 -4 14 -2
10 4 -5 7 1 9 15 6 19 -4 20 -3 8 6 -18 13 -1 15 19 2 11 -7 9 -10 -8 -16 -13
-4 -20 -9 -18 -11 9 -9 57 20 73 43 10 15 21 22 31 19 10 -4 13 -2 10 8 -4 10
-1 13 7 10 7 -3 39 10 72 28 135 77 303 141 449 173 44 9 83 20 87 24 9 8 -2
52 -11 46 -4 -2 -7 9 -7 26 0 16 4 29 9 29 6 0 8 3 4 6 -6 6 40 96 115 226 21
36 38 72 38 79 0 7 3 9 7 6 4 -4 12 5 19 21 10 25 68 117 151 243 13 20 32 45
43 57 11 12 20 23 20 26 0 11 64 96 72 96 4 0 8 6 8 14 0 8 6 21 13 28 7 7 33
40 57 73 25 33 47 62 50 65 3 3 21 25 40 50 19 25 40 50 46 55 6 6 26 30 45
55 19 25 46 59 61 75 15 17 73 89 129 160 56 72 119 150 139 175 20 25 58 75
85 112 28 38 53 68 58 68 4 0 7 5 7 12 0 6 25 44 55 84 52 69 57 73 89 69 24
-3 38 1 50 14 16 18 12 28 -97 202 -452 726 -979 1778 -1058 2109 -7 30 -15
58 -18 62 -3 3 -35 -21 -71 -54z"/>
</g>
</svg>
